# xmcd CD database file
#
# Track frame offsets:
#	150
#	32845
#	53350
#	79720
#	88960
#	114575
#	132250
#
# Disc length: 2166 seconds
#
# Revision: 0
# Processed by: cddbd v1.5.2PL0 Copyright (c) Steve Scherf et al.
# Submitted via: CDex 1.70beta2
#
DISCID=52087407
DTITLE=Helen Merrill with Gary Peacock Trio - Sposin'
DYEAR=1971
DGENRE=Jazz
TTITLE0=The Thrill is Gone
TTITLE1=My Man
TTITLE2=If You Could See Me Now
TTITLE3=Sposin'
TTITLE4=In a Sentimental Mood ～ Once Upon a Summertime
TTITLE5=Angel Eyes
TTITLE6=Until it's Time for You to Go
EXTD=YEAR: 1971
EXTT0=
EXTT1=
EXTT2=
EXTT3=
EXTT4=
EXTT5=
EXTT6=
PLAYORDER=
